<svg width="200" height="18" viewBox="0 0 200 18" fill="none" xmlns="http://www.w3.org/2000/svg">
<path d="M0.831055 0.807617V16.5075H3.94306V9.61951H9.69196V6.6743H3.94306V3.77658H13.4454V0.807617H0.831055Z" fill="black"/>
<path d="M27.5568 16.8875C27.0816 16.8875 26.6778 16.6975 26.3215 16.3649C25.9651 16.0087 25.7988 15.5574 25.7988 15.0348C25.7988 14.5123 25.9651 14.061 26.2977 13.7047C26.6303 13.3485 27.0579 13.1584 27.533 13.1584C28.0556 13.1584 28.4595 13.3485 28.7683 13.7047C29.0771 14.061 29.2434 14.5123 29.2434 15.0111C29.2434 15.5336 29.0771 15.9849 28.7445 16.3412C28.4595 16.6975 28.0319 16.8875 27.5568 16.8875Z" fill="black"/>
<path d="M60.7669 0.807617L55.018 8.8357L49.3404 0.807617H46.8936V16.5075H50.0056V6.79306L55.018 14.0373L60.0543 6.79306V16.5075H63.1663V0.807617H60.7669Z" fill="black"/>
<path d="M83.3591 0.807617H80.2471V16.555H83.3591V0.807617Z" fill="black"/>
<path d="M100.511 0.807617V16.5075H113.03V13.5385H103.623V0.807617H100.511Z" fill="black"/>
<path d="M128.02 0.807617V16.5075H140.563V13.5385H131.132V0.807617H128.02Z" fill="black"/>
<path d="M155.553 0.807617V16.5075H168.761V13.5385H158.665V9.61951H164.437V6.6743H158.665V3.77658H168.167V0.807617H155.553Z" fill="black"/>
<path d="M194.014 7.26809C194.299 7.22059 194.536 7.07808 194.75 6.86431C194.916 6.6743 195.059 6.48428 195.13 6.22301C195.201 5.96174 195.249 5.72423 195.249 5.46296C195.249 5.08293 195.178 4.77416 195.035 4.56039C194.893 4.32287 194.75 4.18036 194.584 4.06161C194.37 3.89534 194.109 3.82409 193.824 3.80034C193.539 3.77658 193.23 3.77658 192.945 3.77658H187.505V7.3631H193.182C193.467 7.33934 193.729 7.31559 194.014 7.26809ZM191.994 10.3796H187.505V16.5075H184.393V0.807617H193.396C193.657 0.807617 193.942 0.831369 194.251 0.855121C194.56 0.878872 194.893 0.950128 195.225 1.04513C195.558 1.14014 195.89 1.2589 196.223 1.44891C196.556 1.63893 196.864 1.85269 197.173 2.16147C197.696 2.684 198.052 3.2778 198.218 3.94285C198.385 4.58414 198.456 5.17794 198.456 5.72423C198.456 6.17551 198.408 6.65054 198.29 7.14933C198.171 7.64812 197.933 8.12315 197.553 8.59819C197.007 9.28699 196.294 9.80953 195.368 10.142L199.097 16.5313H195.605L191.994 10.3796Z" fill="black"/>
</svg>
