<?xml version="1.0" encoding="UTF-8"?>
<svg id="Layer_2" data-name="Layer 2" xmlns="http://www.w3.org/2000/svg" viewBox="0 0 24.05 24.05">
  <defs>
    <style>
      .cls-1 {
        fill: none;
      }

      .cls-2 {
        fill: #fff;
      }
    </style>
  </defs>
  <g id="Layer_1-2" data-name="Layer 1">
    <g>
      <path class="cls-2" d="M9.16,6.69h14.9V1.71H7.91C4.89,1.71,2.41,3.87,1.81,6.69c-.05.43-.11.81-.11,1.25s.05.87.11,1.25c.11.43.22.87.38,1.25.49,1.03,1.13,1.84,2,2.49,1.03.76,2.32,1.25,3.72,1.25h8.69c.7,0,1.24.54,1.24,1.25s-.54,1.25-1.24,1.25H1.71v4.99h16.14c3.02,0,5.51-2.17,6.1-4.99.05-.38.11-.81.11-1.25s-.05-.87-.11-1.25c-.11-.43-.22-.87-.38-1.25-.43-.98-1.13-1.84-2-2.49-1.03-.76-2.32-1.25-3.72-1.25h-8.69c-.7,0-1.24-.54-1.24-1.25s.59-1.25,1.24-1.25Z"/>
      <polygon class="cls-2" points="0 3.71 0 0 3.71 0 0 3.71"/>
      <rect class="cls-1" width="24.05" height="24.05"/>
    </g>
  </g>
</svg>