<svg width="110" height="20" viewBox="0 0 110 20" fill="none" xmlns="http://www.w3.org/2000/svg">
<g clip-path="url(#clip0_2469_353)">
<path d="M7.44954 4.98645H22.3486V0H6.20795C3.18495 0 0.701769 2.16802 0.107964 4.98645C0.0539822 5.42005 0 5.79946 0 6.23306C0 6.66667 0.0539822 7.10027 0.107964 7.47968C0.215929 7.91328 0.323893 8.34688 0.48584 8.72629C0.97168 9.7561 1.61947 10.5691 2.48318 11.2195C3.50884 11.9783 4.80442 12.4661 6.20795 12.4661H14.8991C15.6009 12.4661 16.1407 13.0081 16.1407 13.7127C16.1407 14.4173 15.6009 14.9594 14.8991 14.9594H0V19.9458H16.1407C19.1637 19.9458 21.6469 17.7778 22.2407 14.9594C22.2947 14.5799 22.3486 14.1463 22.3486 13.7127C22.3486 13.2791 22.2947 12.8455 22.2407 12.4661C22.1327 12.0325 22.0247 11.5989 21.8628 11.2195C21.4309 10.2439 20.7292 9.37669 19.8654 8.72629C18.8398 7.96748 17.5442 7.47968 16.1407 7.47968H7.44954C6.74778 7.47968 6.20795 6.93767 6.20795 6.23306C6.20795 5.52846 6.80176 4.98645 7.44954 4.98645Z" fill="#121212"/>
<path d="M39.7848 0H34.8185C29.3123 0 24.8857 4.44444 24.8857 9.9729C24.8857 15.5014 29.3123 19.9458 34.8185 19.9458H39.7848C45.291 19.9458 49.7176 15.5014 49.7176 9.9729C49.7176 4.44444 45.291 0 39.7848 0ZM39.7848 14.9594H34.8185C32.0654 14.9594 29.8521 12.7371 29.8521 9.9729C29.8521 7.20867 32.0654 4.98645 34.8185 4.98645H39.7848C42.5379 4.98645 44.7512 7.20867 44.7512 9.9729C44.7512 12.7371 42.5379 14.9594 39.7848 14.9594Z" fill="#121212"/>
<path d="M99.4892 14.9594H94.4689C91.7158 14.9594 89.5025 12.7371 89.5025 9.9729C89.5025 7.20867 91.7158 4.98645 94.4689 4.98645H99.4352C101.271 4.98645 102.89 6.01626 103.754 7.47968H109.098C108.018 3.19783 104.078 0 99.4892 0H94.4689C88.9627 0 84.5361 4.44444 84.5361 9.9729C84.5361 15.5014 88.9627 19.9458 94.4689 19.9458H99.4352C104.078 19.9458 107.964 16.748 109.044 12.4661H103.7C102.89 13.9837 101.325 14.9594 99.4892 14.9594Z" fill="#121212"/>
<path d="M52.2012 20H57.1675V0C55.2242 1.95122 54.1445 3.03523 52.2012 4.98645V20Z" fill="#121212"/>
<path d="M57.167 4.98645H64.6705V20H69.6369V4.98645V0H62.1873L57.167 4.98645Z" fill="#121212"/>
<path d="M82.0526 0H74.6031L69.6367 4.98645H77.0863V20H82.0526V4.98645V0Z" fill="#121212"/>
</g>
<defs>
<clipPath id="clip0_2469_353">
<rect width="109.098" height="20" fill="white"/>
</clipPath>
</defs>
</svg>
